<?xml version="1.0" encoding="UTF-8"?>
<svg id="Calque_1" data-name="Calque 1" xmlns="http://www.w3.org/2000/svg" viewBox="0 0 181.07 180.96">
  <defs>
    <style>
      .cls-1 {
        fill: #724cf9;
      }

      .cls-2 {
        fill: #564592;
      }
    </style>
  </defs>
  <path class="cls-1" d="M84.25,8.86c-16.52,0-35.53,3.58-51.27,8.9-10.44,3.52-16.12,14.78-13.02,25.35h0c3.05,10.39,13.6,16.66,24.19,14.4,3.39-.72,6.07-1.25,6.7-1.36,6.86-1.13,13.77-1.97,20.7-2.53,3.28-.26,6.55-.55,9.83-.38,11.34.61,21.91,5.74,28.66,15.04,6.16,8.48,7.14,18.1,7.2,28.24.1,17.07.21,34.14.28,51.21,0,1.4.01,2.8.02,4.2h0c0,11.14,9.03,20.16,20.16,20.16h6.4c11.14,0,20.16-9.03,20.16-20.16v-78.1c0-45.13-29.13-64.97-80.02-64.97Z"/>
  <path class="cls-2" d="M68.63,171.76c-29.46,1.23-52.54-20.23-51.81-51.22.13-5.5.23-11.02.44-16.51.43-10.75,3.95-21.33,12.47-28.19,9.31-7.51,21.39-8.73,32.83-9.91,16.74-1.72,37.77.23,41.45,19.81,1.39,7.42,1.54,15.01,1.47,22.54-.06,7.07.39,14.45-.74,21.45-1.9,11.75-6.76,23.5-15.32,31.86-5.44,5.32-12.33,8.95-19.87,10.07l-.91.1Z"/>
</svg>